<?xml version="1.0" encoding="UTF-8"?>
<svg id="Capa_1" data-name="Capa 1" xmlns="http://www.w3.org/2000/svg" viewBox="0 0 1080 1080">
  <defs>
    <style>
      .cls-1 {
        fill: #ff0014;
      }

      .cls-2 {
        fill: none;
        stroke: #ff0014;
        stroke-miterlimit: 10;
        stroke-width: 32.03px;
      }
    </style>
  </defs>
  <path class="cls-1" d="M313.78,571.23c-26.09,49.6-45.84,103.45-58.63,158-14.5,61.84-22.18,129.11-4.35,191.12,7.6,26.45,20.69,52.32,40.67,71.59,23.87,23.01,52.94,37.62,85.35,44.17,61.32,12.41,128.22-5.74,180.95-37.58,63.33-38.24,107.24-99.66,146.75-160.62,5.54-8.55,11.05-17.12,16.54-25.7,3.1-4.83,3.91-13.41,3.91-18.87,0-5.87-.94-13.61-3.91-18.87-2-3.55-4.8-7.82-9.44-7.82s-7.28,4.45-9.44,7.82c-2.37,3.7-4.74,7.4-7.11,11.09-1.19,1.86-2.39,3.71-3.58,5.56-.6,.93-1.2,1.86-1.8,2.78,.99-1.53,.99-1.52,0,0-4.99,7.68-10.02,15.33-15.14,22.92-9.96,14.77-20.25,29.32-31.18,43.39-11.05,14.23-22.76,27.97-35.37,40.84-6.19,6.32-12.6,12.42-19.24,18.25-3.73,3.28-3.92,3.44-8.26,6.9-3.47,2.77-7,5.46-10.59,8.08-24.03,17.48-50.99,30.99-79.23,40.18-3.58,1.17-7.18,2.26-10.8,3.28-.68,.19-1.36,.38-2.04,.57,2.07-.56-.23,.05-.55,.13-2.28,.57-4.56,1.14-6.86,1.67-7.31,1.68-14.7,3.06-22.13,4.1-14.68,2.06-29.57,2.82-44.37,1.97-7.29-.42-14.56-1.22-21.76-2.46-3.58-.62-7.14-1.33-10.67-2.16-.88-.21-1.76-.43-2.64-.64-.39-.09-2.62-.7-.39-.09-1.96-.54-3.91-1.12-5.86-1.74-13.9-4.39-27.21-10.64-39.37-18.7-3.11-2.06-6.14-4.23-9.08-6.52-1.3-1.01-2.58-2.05-3.86-3.09,2.31,1.89,.38,.31-.06-.08-1.07-.96-2.14-1.91-3.2-2.88-4.53-4.2-8.77-8.71-12.64-13.53-1.74-2.17-3.4-4.39-4.98-6.67-.38-.54-3.42-4.93-1.42-2.07,1.74,2.49,.27,.41-.13-.26-.47-.8-.96-1.59-1.43-2.39-3.01-5.16-5.68-10.53-8.01-16.02-.59-1.39-1.11-2.82-1.71-4.2,.06,.13,2.03,5.54,.88,2.21-.25-.72-.52-1.43-.77-2.15-1.02-2.9-1.95-5.83-2.81-8.78s-1.66-6-2.38-9.03c-.48-2.03-1.42-7.68,.07,.61-.28-1.56-.62-3.11-.91-4.68-1.19-6.57-2.08-13.19-2.7-19.83-.13-1.43-.24-2.87-.37-4.31-.36-4.14,.23,3.45,.22,3.38-.17-.72-.1-1.72-.15-2.49-.19-3.56-.31-7.13-.37-10.69-.12-7.06,0-14.12,.35-21.16,.07-1.52,.17-3.03,.25-4.55,.16-3.29-.48,6.47-.22,3.19,.07-.87,.13-1.74,.19-2.61,.29-3.72,.63-7.44,1.03-11.15,1.51-14.21,3.74-28.34,6.52-42.35,.35-1.77,.73-3.53,1.08-5.29-.05,.23-1.38,6.36-.5,2.41,.2-.88,.38-1.76,.58-2.64,.78-3.52,1.6-7.03,2.44-10.53,1.69-6.98,3.5-13.94,5.43-20.86,3.85-13.78,8.15-27.44,12.86-40.95,2.24-6.42,4.59-12.8,7-19.15,1.9-5.01-1.79,4.54,.16-.41,.6-1.53,1.21-3.06,1.82-4.59,1.28-3.19,2.58-6.37,3.9-9.55,4.67-11.18,9.63-22.23,14.94-33.12,2.39-4.91,4.86-9.79,7.41-14.62,5.53-10.51,5.89-27.29,0-37.75-2-3.55-4.8-7.82-9.44-7.82s-7.61,4.34-9.44,7.82h0Z"/>
  <path class="cls-1" d="M283.07,626.7c-2.44,2.91-4.98,5.72-7.66,8.41-1.31,1.31-2.65,2.59-4.02,3.83-.67,.61-1.4,1.19-2.05,1.82-.92,.79-.55,.48,1.11-.93-.56,.46-1.12,.92-1.68,1.37-5.5,4.39-11.41,8.28-17.63,11.58s-12.91,6.08-19.72,8.17c-.64,.2-1.28,.38-1.92,.57-3.3,1.01,3.06-.64-.31,.08-1.46,.31-2.9,.69-4.37,1-3.39,.7-6.81,1.25-10.25,1.65-13.2,1.51-26.67,.72-39.61-2.33-.78-.18-1.55-.41-2.33-.58-2.04-.43,3.37,1.05,.31,.07-1.52-.49-3.06-.92-4.57-1.43-3.32-1.11-6.59-2.38-9.79-3.79-5.79-2.56-11.36-5.62-16.61-9.15-2.62-1.76-5.1-3.69-7.6-5.62-2.14-1.66,.83,.76,1.01,.87-.75-.45-1.48-1.29-2.12-1.88-1.28-1.17-2.53-2.37-3.76-3.6-4.65-4.7-8.18-10.01-12.26-15.14,3.99,5.01,.54,.74-.32-.75-.8-1.4-1.57-2.83-2.3-4.27s-1.43-2.93-2.1-4.42c-.27-.6-.51-1.21-.78-1.81-2.05-4.63,.99,2.92,.46,1.25-.97-3.05-2.04-6.04-2.84-9.15-.2-.76-.28-2.36-.72-2.99-.04-.06,1.33,6.88,.71,3.33-.36-2.08-.73-4.14-1-6.23-.23-1.78-.36-3.56-.56-5.34,1.1,9.95,.21,3.05,.16,.51-.04-1.88-.02-3.75,.03-5.63,.02-.76,.06-1.52,.09-2.29,.16-4.7-.62,6.9-.16,2.46,.41-4,.89-7.97,1.61-11.92,.34-1.86,1.68-6.15-.36,1.47,.22-.81,.37-1.66,.57-2.48,.59-2.48,1.24-4.95,1.96-7.39,.54-1.84,1.13-3.66,1.76-5.47,1.94-5.54-1.95,4.51,.37-.95,1.46-3.44,3.09-6.8,4.91-10.06,.89-1.59,2.09-3.13,2.84-4.78-2.41,5.33-.03,.13,1.04-1.33,2.4-3.3,5.01-6.45,7.79-9.44,1.41-1.51,2.86-2.97,4.35-4.39,1-.95,5.63-4.87,2.33-2.22,3.63-2.93,7.35-5.7,11.28-8.21,8-5.12,16.6-9.26,25.5-12.57,2.05-.76,4.12-1.48,6.21-2.16,1.27-.41,2.55-.81,3.84-1.19,.1-.03,4.25-1.21,1.7-.52,5.24-1.41,10.56-2.52,15.91-3.45,11.98-2.08,24.1-3.08,36.25-3.36,10.96-.26,13.52-18.73,13.35-26.69-.18-8.04-2.11-26.12-13.35-26.69-7.47-.38-14.92-1.15-22.28-2.49-3.16-.57-6.26-1.35-9.4-2.02-3.34-.72,3,.93-.24-.05-.61-.19-1.24-.35-1.85-.53-1.81-.54-3.62-1.11-5.41-1.73-10.78-3.71-21.09-8.92-30.18-15.83-.94-.72-1.99-1.95-3.06-2.43,3.15,1.41,2.35,2.06,.85,.69-.37-.34-.76-.68-1.13-1.02-2.02-1.85-3.95-3.8-5.79-5.83-1.54-1.71-3-3.48-4.39-5.3-.65-.85-1.28-1.71-1.89-2.59-3.12-4.45,2.02,3.49,0,.06-1.16-1.98-2.31-3.97-3.33-6.03-.45-.91-.88-1.83-1.3-2.76-.23-.51-.44-1.03-.67-1.55-1.58-3.57,.92,2.8,1.09,2.91-1.05-.67-1.72-5.07-2.06-6.3-.29-1.05-.52-2.12-.81-3.18-.78-2.81,.9,5.01,.93,4.46,.04-.68-.3-1.56-.41-2.23-.34-2.02-.48-4.05-.76-6.07,1.55,11.4,.23,2.88,.28-.55,.08-5.67-.64,6.43-.26,3.3,.12-.94,.18-1.89,.3-2.83s.28-1.87,.42-2.81c.84-5.69-1.67,6.57-.46,2.06,.55-2.03,1.11-4.04,1.76-6.04,1.56-4.81-1.82,4.15-.76,1.86,.44-.95,.82-1.94,1.27-2.89,.9-1.92,1.92-3.76,2.96-5.61,2.36-4.21-1.99,2.71-.66,.94,.71-.94,1.34-1.94,2.05-2.88,2.73-3.62,5.88-6.72,9.14-9.84,1.68-1.61-1.71,1.41-1.65,1.38,.55-.36,1.06-.87,1.58-1.27,.81-.63,1.63-1.24,2.47-1.84,2-1.42,4.06-2.74,6.19-3.95,4.28-2.44,8.8-4.44,13.46-6.04,1.23-.42,2.47-.79,3.7-1.18,3.71-1.16-2.72,.58,1.07-.27,2.97-.67,5.95-1.26,8.97-1.69,14.39-2.03,29.09-1.05,43.32,1.67,2.2,.42,4.39,.88,6.57,1.39,.74,.17,1.49,.35,2.23,.53,.39,.09,4.5,1.16,2.75,.69-2.1-.56,1.69,.48,1.67,.48,1.17,.34,2.33,.68,3.49,1.04,2.39,.73,4.76,1.5,7.12,2.31,9.89,3.39,19.53,7.46,28.96,11.95,2.37-17.16,4.73-34.32,7.1-51.48-12.7-4.21-25.13-9.28-36.88-15.71-5.11-2.79-10.08-5.84-14.86-9.16-2.24-1.56-4.43-3.17-6.58-4.86-.91-.71-1.79-1.48-2.7-2.18-1.67-1.28,2.46,2.24,.95,.8-.58-.55-1.21-1.06-1.8-1.59-3.65-3.29-7.11-6.8-10.31-10.53-1.52-1.77-2.98-3.59-4.38-5.46-.6-.8-1.18-1.61-1.76-2.42-.32-.46-.64-.93-.96-1.39-1.81-2.56,.76,1.1,1.09,1.72-2.03-3.84-4.39-7.44-6.19-11.42-.44-.96-.84-1.93-1.26-2.9-1.84-4.26,1.47,4.27,.68,1.76-.62-1.96-1.33-3.89-1.89-5.87-.76-2.66-1.87-10.33-.26-.27-.32-1.98-.72-3.94-.98-5.93-.13-.99-.22-1.98-.34-2.97-.59-5.05,.28,6.38,.2,3.38-.05-1.98-.15-3.95-.13-5.93,.01-.99,.06-1.97,.08-2.96,.13-5.06-.58,6.38-.24,3.41,.22-1.96,.39-3.91,.67-5.86,.39-2.67,2.3-10.17-.16-.15,.47-1.91,.89-3.83,1.42-5.73s1.11-3.78,1.75-5.65c.28-.82,.58-1.63,.87-2.44,1.26-3.64-2.47,5.94-.61,1.6,1.57-3.65,3.21-7.24,5.11-10.73,.95-1.75,1.94-3.47,2.98-5.16,.46-.76,2.34-3.69,.24-.44s.2-.26,.73-1.01c2.27-3.27,4.71-6.42,7.3-9.45s5.33-5.91,8.22-8.66c1.39-1.32,3.22-2.52,4.42-4-1.13,1.39-2.91,2.36-.62,.55,.87-.69,1.74-1.39,2.63-2.07,6.27-4.77,13.04-8.9,20.19-12.2,3.55-1.64,7.2-3.08,10.91-4.29,.93-.3,1.86-.58,2.8-.86,3.27-1-1.86,.39-.02,0s3.8-.89,5.72-1.24c7.75-1.43,15.68-1.84,23.53-1.14,4.03,.36,8.04,1,11.98,1.92,.5,.12,1,.25,1.5,.37,1.62,.36,.18-.53-1.3-.35,.79-.1,2.23,.66,3,.9,2.02,.65,4.02,1.37,5.99,2.16,8.46,3.39,16.37,8.06,23.6,13.61,.97,.75,1.91,1.54,2.88,2.29,2.1,1.62-2.76-2.54,.39,.36,1.91,1.75,3.82,3.5,5.65,5.34,3.9,3.91,7.56,8.06,10.99,12.39,1.84,2.31,3.61,4.68,5.32,7.08,.77,1.09,1.53,2.19,2.28,3.29,.43,.64,.85,1.3,1.29,1.93,1.35,1.95-2.27-3.66-.46-.7,3.87,6.31,8.31,18.33,15.05,21.24,5.33,2.3,10.36,.03,14.45-3.43,2.8-2.36,4.63-4.81,6.38-8.18,1.04-2,3.51-8.99,1.86-4.63-1.34,3.52,.38-.93,.68-1.67,3.24-7.84,6.89-15.51,10.95-22.96,1.85-3.39,3.79-6.74,5.81-10.04,.53-.87,1.09-1.73,1.62-2.6,1.46-2.41-1.81,2.66-.23,.34,1.28-1.87,2.52-3.75,3.83-5.6,4.53-6.41,9.4-12.58,14.62-18.44s10.37-11.03,16.02-16.06c.75-.67,4.67-3.9,2.06-1.82,1.25-1,2.48-2.02,3.74-3.01,3.02-2.37,6.11-4.64,9.28-6.8,11.42-7.8,23.8-14.25,36.88-18.79,1.58-.55,3.16-1.07,4.76-1.56,.79-.24,1.59-.47,2.39-.71,.18-.06,2.18-.6,.62-.18-1.69,.45,.83-.2,1.22-.3,.8-.19,1.6-.38,2.4-.56,1.8-.4,3.6-.77,5.41-1.1,6.37-1.15,12.82-1.81,19.29-1.95s12.94,.2,19.33,.91c2.89,.32,5.78,.75,8.64,1.29,1.47,.28,2.94,.59,4.41,.93,.72,.17,1.43,.37,2.15,.52,2.01,.44-3.2-1.01,.14,.06,10.41,3.34,20.18,7.76,29.13,14.1,1.96,1.39,3.79,2.94,5.72,4.37,1.66,1.24-2.5-2.28-1.01-.85,.45,.44,.95,.83,1.42,1.25,1.05,.95,2.08,1.91,3.09,2.9,3.55,3.46,6.86,7.15,9.93,11.03,1.42,1.79,2.79,3.62,4.12,5.48,.7,.99,1.37,1.99,2.06,2.99,2.25,3.25-2.52-4.12,0-.01,2.46,4.03,4.79,8.13,6.92,12.34s3.94,8.19,5.69,12.38c1.21,2.9,2.96,7.82,.48,1.06,.77,2.1,1.55,4.19,2.28,6.31,4.16,12,6.96,24.3,10.3,36.53,1.76,6.45,4.13,14.49,10.28,18.13,7.6,4.5,12.57-5.36,15.67-10.39,.39-.63,.89-1.77,1.39-2.23-.27,.25-2.53,3.75-.58,.93,.84-1.21,1.66-2.44,2.51-3.64,1.99-2.8,4.08-5.54,6.27-8.19,3.81-4.61,7.94-8.97,12.39-12.97,.23-.2,1.47-1.44,1.59-1.4-.02,0-3.17,2.55-.78,.67,.94-.74,1.88-1.5,2.83-2.22,2.25-1.7,4.58-3.31,6.97-4.81,4.26-2.66,8.74-4.98,13.4-6.86,2.09-.84,4.21-1.6,6.36-2.26,.56-.17,1.14-.31,1.7-.5,1.75-.61-2.81,.59-1,.27,1.28-.22,2.55-.6,3.83-.85,8.87-1.73,18.02-1.85,26.93-.38,2.06,.34,4.08,.9,6.13,1.26,1.79,.31-2.85-.88-1.12-.31,.53,.17,1.07,.31,1.61,.47,1.2,.36,2.4,.76,3.58,1.18,4.24,1.5,8.35,3.35,12.3,5.5s7.85,4.68,11.49,7.44c.81,.61,1.59,1.25,2.38,1.87,2.96,2.33-2.65-2.44,.13,.13,1.83,1.69,3.66,3.38,5.39,5.17,3.31,3.43,6.39,7.1,9.19,10.96,.62,.86,1.22,1.73,1.83,2.6,2.46,3.47-2.41-4.01-.21-.34,1.35,2.25,2.68,4.49,3.89,6.82,1.09,2.07,2.1,4.18,3.05,6.32,.51,1.15,.94,2.35,1.48,3.48,.96,2.03-1.35-3.69-1.22-3.19,.23,.89,.68,1.82,.98,2.7,.8,2.28,1.52,4.59,2.17,6.91,.35,1.26,.68,2.52,.99,3.78,.12,.48,.21,.96,.34,1.44,1.09,4.07-1.22-6.68-.53-2.5,.41,2.47,.87,4.93,1.19,7.42,.17,1.35,.3,2.69,.44,4.04,.53,5.13-.36-7.54-.09-1.45,.12,2.61,.15,5.23,.1,7.85-.03,1.42-.12,2.84-.16,4.25-.07,2.69,.48-5.13,.3-4.42-.24,.97-.19,2.25-.29,3.24-.28,2.74-.64,5.48-1.1,8.2-.25,1.48-.56,2.95-.81,4.42-.43,2.51,.67-4.12,.76-3.59,.12,.72-.61,2.64-.79,3.35-.71,2.84-1.51,5.66-2.39,8.46-.42,1.33-.86,2.66-1.32,3.98-.27,.76-.55,1.52-.82,2.28-1.49,4.31,2.11-5.06,.32-.82-2.66,6.32-5.53,12.51-8.87,18.5-1.65,2.97-3.43,5.85-5.2,8.74-1.4,2.28,1.97-2.89,.43-.67-.4,.58-.78,1.17-1.18,1.75-1.34,1.97-2.72,3.92-4.13,5.84-9.67,13.17-20.9,25.09-33,36.05-3.71,3.36-5.49,11.43-6.13,15.95-.9,6.39-.7,14.37,1.35,20.57,2.95,8.92,9.35,17.65,18.26,9.58,29.72-26.93,54.09-60.86,64.86-99.89,9.92-35.95,8.8-74.46-5.05-109.19-9.67-24.26-27.18-46.27-50.18-59.09-21.85-12.18-46.97-14.39-70.59-6.5-13.46,4.5-25.01,12.61-35.45,22.07-5.48,4.97-10.46,10.49-14.98,16.35-2.55,3.31-4.93,6.74-7.22,10.24-1.83,2.79-3.86,5.69-5.49,8.63-2.02,3.64-.95-1.88,4.38-4.45-1.24,.6,4.62-.89,3.27-.89,4.57,.02,7.48,4.76,8.51,6.72-1.34-2.55,2.49,7.56,1.22,3.03-.68-2.41-1.33-4.82-1.94-7.26-1.96-7.78-3.93-15.55-6.29-23.22-7.49-24.34-17.98-48.16-33.9-68.22-18.19-22.92-43.47-37.87-72.41-42.27-77.04-11.72-143.57,45.23-176.24,110.23-2.39,4.76-4.62,9.6-6.69,14.51-1.51,3.58-2.56,8.27-4.53,11.43,1.51-2.42,1.8-5.2,4.1-6.99-1.84,1.43-.37,.19,1.32,.83l5.89,6.86c-16.96-31.79-42.12-64-77.78-75.44-27.11-8.7-55.77-5.23-80.49,8.93-24.63,14.11-44.62,37.4-55.22,63.69-14.17,35.13-15.17,74.52,0,109.54,14.84,34.3,46.92,57.72,80.64,71.46,5.32,2.17,10.72,4.12,16.17,5.92,20.11,6.66,22.55-44.12,7.1-51.48-48.11-22.91-119.39-40.13-159.39,7.25-33.65,39.86-28.34,108.2,9.13,143.79,23.62,22.44,55.22,32.11,87.29,33.74v-53.39c-41.21,.98-83.16,10.84-114.41,39.04-29.83,26.92-42.46,69.89-42.11,109.1,.32,35.44,12.21,72.33,39.23,96.47,22.61,20.2,51.88,31.58,82.34,31.23,36.47-.43,70.43-17.81,93.72-45.57,7.71-9.2,8.42-25.53,4.79-36.52-2.49-7.52-10.2-19.18-18.26-9.58h0Z"/>
  <path class="cls-1" d="M646.55,382.06c-11.06-36.19-39-70.03-73.26-86.5-8.34-4.01-17.37-6.93-26.52-8.4-10.01-1.61-20.02-1.89-29.95-4.24-18.45-4.37-35.65-12.92-53.15-20-9.09-3.68-18.29-6.88-27.77-9.38s-22.37-6.14-32.23-1.88c-12.75,5.51-22.29,16.5-25.71,29.95-8.03,31.57,9.77,59.06,32.79,78.75,21.97,18.79,48.92,36.21,77.69,41.95,3.22,.64,6.46-4.16,7.55-6.25,2.25-4.32,3.23-10.3,3.13-15.1-.17-7.56-1.68-19.56-10.68-21.35-.95-.19-1.89-.4-2.83-.62-3.18-.73,1.31,.48-1.29-.36-2.44-.79-4.87-1.56-7.27-2.47-5.27-1.99-10.42-4.3-15.46-6.82-10.99-5.5-21.53-11.96-31.44-19.21-2.51-1.84-4.98-3.73-7.41-5.68-.56-.45-1.12-.92-1.69-1.37-1.52-1.23,1.54,1.34,.07,.07-1.34-1.16-2.68-2.33-3.99-3.53-4.34-3.97-8.48-8.17-12.22-12.71-1.57-1.91-2.99-3.92-4.47-5.9-1.57-2.1,.6,1.04,.7,1.13-.3-.26-.68-1.08-.91-1.47-.69-1.21-1.39-2.42-2.01-3.67-.44-.88-.72-2.17-1.34-2.92,2.36,2.86,1.17,3.38,.36,.71-.14-.47-.25-.97-.4-1.43-1.01-2.95,.61,4.88,.54,2.62-.01-.47-.16-.94-.21-1.4-.36-3.33,.19,3.14,.2,3.24-.28-4.3-.66,5.28-.23,2.27,.62-4.37-1.32,4.9-.32,1.46,.94-3.23-.74,4.45-.42,1.11,.04-.44,.92-1.18,.83-1.56,.13,.56-2.56,3.3-.74,1.2,.67-.78,1.27-1.61,1.97-2.36,.79-.84,3.65-2.86,.8-.95,2.4-1.61,4.62-3.31,7.19-4.68,7.38-3.94,17.84-.86,25.73,1.02,7.86,1.87,15.51,4.71,23.02,7.68,16.51,6.53,32.55,14.3,49.59,19.41,9.22,2.77,18.62,4.99,28.2,6.09,7.9,.91,15.95,1.24,23.27,3.65,18.18,6,33.67,17.21,46.23,30.57,3.23,3.44,6.3,7.04,9.19,10.77,1.49,1.93,2.94,3.9,4.33,5.9,.55,.79,1.09,1.59,1.63,2.39,.95,1.43-.9-1.54,.53,.87,2.35,3.96,4.6,7.96,6.55,12.13,.52,1.11,3.55,7.24,1.39,2.91,.91,1.81,1.41,4,2,5.93,1.94,6.34,8.16,14.85,14.61,7.66s6.43-20.71,3.83-29.22h0Z"/>
  <ellipse class="cls-2" cx="536.58" cy="617.88" rx="94.37" ry="68.15" transform="translate(-258.46 423.94) rotate(-35.32)"/>
  <path class="cls-1" d="M497.88,654.82c22.48-13.48,45.49-26.02,69.01-37.59,10.64-5.23,7.24-40.21-4.73-34.32-23.52,11.57-46.53,24.11-69.01,37.59-6.55,3.93-7.32,15.2-6.21,21.89,.68,4.14,4.16,16.5,10.95,12.43h0Z"/>
  <path class="cls-1" d="M414.87,666.87c49.58-38.29,95.77-80.5,141.57-123.16,12.84-11.96,25.69-23.91,38.63-35.77,4.95-4.53,7.32-15.19,8.18-21.27,1.21-8.52,.94-19.16-1.79-27.42-1.86-5.63-4.66-13.86-10.64-16.36-5.61-2.34-9.37-.39-13.71,3.59-43.81,40.15-86.56,81.48-131.98,119.84l4.25-3.59c-14.41,12.14-29.06,23.99-43.98,35.51-12.45,9.61-14.86,29.07-12.43,43.78,1.18,7.14,2.89,15.95,8.18,21.27,3.3,3.32,9,7.23,13.71,3.59h0Z"/>
  <path class="cls-1" d="M699.57,813.23c11.35,17.82,28.18,29.67,48.08,36.47s41.58,9.97,62.54,7.1c51.7-7.08,90.08-56.04,95.28-106.45,1.97-19.15,0-38.12-5.47-56.56-4.17-14.03-10.18-27.45-14.88-41.3l-11.52,40.17c22.85,4.12,46.97,1.89,67.94-8.53,19.14-9.51,34.58-25.83,44.22-44.79,21.95-43.15,17.28-104.53-20.63-137.52-23.72-20.64-54.41-28.88-85.36-30.56,1.18,17.48,2.37,34.96,3.55,52.43,17.71-9.25,35.06-21.23,47.36-37.21,15.49-20.13,22.75-45.08,22.53-70.37-.24-26.83-6.15-60.13-26.61-79.34-16.7-15.68-40.77-22.4-63.42-21.58-27.29,.98-50.4,14.94-68.87,34.29-3.67,3.85-5.43,10.97-6.13,15.95-.9,6.39-.7,14.37,1.35,20.57,2.7,8.18,9.77,18.47,18.26,9.58,7.51-7.87,13.46-12.95,23.6-18.4,3.92-2.1,8-3.9,12.21-5.34,.9-.31,1.81-.59,2.72-.88,4.28-1.36-1.34,.26,1.22-.32s4.97-1.04,7.49-1.38c17.17-2.32,35.16,.19,49.61,7.98,2.37,1.28,4.51,2.79,6.77,4.25,.31,.2,2.43,1.88,.56,.3,.81,.68,1.59,1.44,2.34,2.19,1.91,1.9,3.51,3.97,5.17,6.08,.63,.81,1.53,3-.1-.2,.72,1.41,1.56,2.76,2.26,4.19,.59,1.19,1.08,2.43,1.64,3.63,1.39,2.99-1.52-5.2-.12-.14,.57,2.07,1.19,4.15,1.8,6.21,1.55,5.28-.73-4.37-.12-.82,.23,1.34,.49,2.67,.71,4.01,.42,2.67,.72,5.36,1.03,8.05,.53,4.49-.08-2.28-.13-2.56,.21,1.17,.1,2.5,.11,3.69,.02,2.55-1.08,9.44,.18,.74-.3,2.04-.44,4.09-.79,6.13-.41,2.41-1.84,3.75,.42-1.78-.48,1.19-.65,2.59-1.01,3.82-.48,1.64-1.29,3.27-1.65,4.93,1.14-5.3,1.27-3.03,.37-1.24-.47,.95-.89,1.94-1.37,2.89-.76,1.52-1.57,3.02-2.44,4.48-.35,.59-2.73,3.31-.67,1.16s-.76,1-1.19,1.59c-2.67,3.64-5.64,7.06-8.82,10.27-1.54,1.56-3.17,3.01-4.76,4.51-3.09,2.92,1.72-1.32-.34,.33-1.04,.84-2.08,1.68-3.14,2.5-7.83,6.05-16.32,11.17-25.08,15.74-9.19,4.8-10.14,20.63-9.56,29.29,.51,7.6,3.09,22.6,13.11,23.15,7.29,.39,14.55,1.12,21.75,2.33,3.21,.54,6.41,1.18,9.59,1.92,.9,.21,5.13,1.32,1.8,.4,1.72,.48,3.43,.97,5.13,1.51,10.5,3.32,20.64,7.98,29.69,14.29,1.87,1.31,3.8,3.43,5.83,4.42-.14-.07-3.13-2.78-1.27-1.06,.41,.38,.83,.74,1.24,1.11,1.01,.92,2,1.87,2.96,2.84,3.16,3.18,6.06,6.63,8.63,10.31,.29,.42,.57,.86,.87,1.27,1.6,2.22-1.5-2.36-1.45-2.25,.41,.9,1.07,1.75,1.56,2.61,1.12,1.95,2.15,3.96,3.08,6.01,.46,1.01,.85,2.06,1.32,3.07s-2.26-6.4-.79-1.95c.69,2.09,1.29,4.19,1.89,6.31,.15,.53,.16,1.3,.42,1.77,.23,.41-1.39-7.28-.9-4.24,.15,.96,.35,1.9,.5,2.86,.47,3.01,.63,11.64,.3,.1,.06,1.93,.16,3.85,.14,5.78-.01,1.08-.08,2.17-.11,3.25-.08,2.86,.67-7.78,.33-4.93-.07,.6-.1,1.2-.17,1.8-.21,2.04-.54,4.07-.87,6.09-.81,4.96,1-4.27,.62-2.82-.3,1.17-.56,2.36-.88,3.53-.55,2-1.2,3.95-1.85,5.91-1.42,4.27,1.84-4.36,.79-1.98-.49,1.12-.94,2.25-1.45,3.37-.81,1.79-1.69,3.54-2.62,5.27-.47,.87-.95,1.72-1.45,2.57-.25,.43-.51,.84-.76,1.27-1.7,2.9,.49-.89,1.11-1.67-2.73,3.42-5.05,7.07-8.01,10.33-1.44,1.59-2.94,3.13-4.49,4.6-.74,.7-1.5,1.38-2.25,2.06-2.94,2.69,2.9-2.2-.34,.27-3.53,2.69-7.13,5.22-11,7.41-4.58,2.6-9.39,4.78-14.36,6.52-1.18,.41-2.37,.8-3.57,1.17-.54,.16-1.08,.31-1.62,.48-2.76,.86,2.91-.61,.26-.08-2.85,.57-5.65,1.25-8.53,1.69-12.38,1.88-24.97,1.32-37.26-.9-6.24-1.13-10.28,9.08-11.52,13.22-2.5,8.29-2.81,18.68,0,26.95,3.78,11.13,8.34,21.96,12.2,33.06,1.81,5.2,3.34,10.45,4.7,15.79,1.09,4.31-.53-1.52-.38-1.8-.33,.63,.65,3.86,.75,4.62,.14,1.04,.23,2.08,.37,3.12,.25,2.88,.21,2.09-.13-2.36,.05,1.07,.07,2.13,.07,3.2,0,.45-.29,2.67-.06,3.24l.28-3.81c-.09,1.11-.21,2.23-.34,3.33-.14,1.13-.35,2.25-.5,3.39-.76,5.88,1.67-5.26-.15,.56-.82,2.64-1.59,5.27-2.44,7.9-1.58,4.84,1.53-3.42,.17-.43-.73,1.62-1.4,3.26-2.16,4.87-1.08,2.29-2.25,4.54-3.49,6.75-.75,1.32-1.54,2.61-2.32,3.92,.33-.56,2.26-3.28,.22-.36-3.17,4.56-6.56,8.92-10.35,12.99-1.7,1.84-3.48,3.61-5.3,5.32-1.09,1.02-2.2,2.03-3.35,3,2.13-1.79,.13-.15-.27,.15-4.41,3.23-8.78,6.35-13.59,8.97-3.99,2.18-8.13,4.08-12.43,5.56-.92,.32-1.85,.59-2.77,.9-3.68,1.24,2.81-.55-1.03,.29-2.38,.52-4.75,1.05-7.15,1.44-8.84,1.43-17.86,1.7-26.78,1.11-4.38-.29-8.75-.8-13.09-1.51-2.17-.36-4.33-.76-6.48-1.22-1.29-.27-2.56-.59-3.85-.88-2.95-.66,1.65,.55-1.51-.39-9.64-2.86-19.01-6.58-27.59-11.88-2-1.23-3.95-2.54-5.83-3.94-.61-.46-1.21-.94-1.82-1.4-1.38-1.12-1.19-.95,.58,.52-.56-.49-1.11-.99-1.65-1.5-1.46-1.37-2.85-2.81-4.16-4.32-1.12-1.3-5.57-7.76-2.01-2.17-2.13-3.35-4.76-7.82-9.44-7.82-4.28,0-7.81,4.41-9.44,7.82-2.76,5.79-4.05,12.48-3.91,18.87,.14,6.09,.56,13.62,3.91,18.87h0Z"/>
  <path class="cls-1" d="M261.09,917.3c12.27-1.8,24.92-4.39,37.39-4.07,9.91,.26,15.41,2.58,24.83,5.76,2.39,.81,4.43,1.79,6.67,2.88,1,.49-.52-.5-.63-.62,.12,.13,1.02,1.05,1.02,1.05-.15,.05,1.82,1.73-.04-.24-1.36-1.43-.08-.19,.17,.47-.03-.08-1.26-3.77-.63-1.54,.17,.59,.53,2.07-.1-.64s-.25-.93-.14-.19c.24,1.67-.11-2.88-.18-2.68-.16,.43-.12,4.84,.05,1.13,.16-3.49-.29,1.46-.41,2.31-.07,.49-.21,.98-.26,1.47-.21,2.14,.85-3.37,.28-1.25-.32,1.2-.56,2.42-.87,3.62-.69,2.71-1.45,5.4-2.24,8.08-1.63,5.6-3.36,11.17-4.81,16.82-4.03,15.63-6.66,32.73-1.59,48.46,1.68,5.23,6.76,12.42,12.17,6.38,5.22-5.81,5.45-17.33,3.19-24.35-.16-.49-.49-1.23-.54-1.78,.02,.21,.57,4.21,.32,1.47-.02-.26-.33-1.88-.25-1.92,.16-.07,.09,4.12,.16,2.26,.02-.65,.22-5.55-.07-2.24-.27,3.1,.2-1.47,.34-2.41,.21-1.46,.52-2.9,.74-4.36,.28-1.87-.32,1.54-.32,1.48-.05-.54,.37-1.64,.51-2.23,.72-3.02,1.54-6.02,2.4-9.01,3.58-12.52,7.85-25.01,8.73-38.08,.86-12.79-1.03-29.75-13.64-36.61-4.75-2.59-10.64-3.93-15.82-5.48-4.66-1.39-9.4-2.7-14.24-3.27-13.89-1.64-28.52,1.73-42.19,3.73-7.31,1.07-9.03,11.81-8.9,17.8,.09,4.14,1.65,18.86,8.9,17.8h0Z"/>
</svg>