<?xml version="1.0" encoding="UTF-8"?>
<svg id="Capa_1" data-name="Capa 1" xmlns="http://www.w3.org/2000/svg" viewBox="0 0 1080 478.7">
  <defs>
    <style>
      .cls-1 {
        fill: none;
        stroke: #ff0014;
        stroke-miterlimit: 10;
        stroke-width: 12.22px;
      }

      .cls-2 {
        fill: #ff0014;
      }
    </style>
  </defs>
  <path class="cls-2" d="M132.62,216.05c-10.06,19.2-17.7,40.01-22.56,61.13-5.38,23.38-8.21,48.8-1.41,72.21,6.57,22.6,23.8,38.63,46.82,43.73,23.53,5.21,49.45-1.66,69.79-13.82,27.83-16.63,45.64-44.68,62.72-71.33,2.4-3.74,2.06-10.6,0-14.4s-5-3.44-7.2,0c-13.97,21.81-28.53,44.72-49.64,60.37-17.71,13.13-39.99,21.2-62.17,20.48-20.16-.65-40.82-10.19-49.4-29.34-7.46-16.65-5.12-36.29-1.48-54.12,4.28-20.97,11.81-41.56,21.74-60.51,2.13-4.06,2.2-10.35,0-14.4-1.97-3.64-5.23-3.76-7.2,0h0Z"/>
  <path class="cls-2" d="M330.67,322.61c46.42,2.39,93.08,1.94,139.54,2.36,65.39,.59,130.78,1.3,196.18,1.99,23.78,.25,47.56,.56,71.34,.75,23.79,.19,47.01-1.03,69.96-7.78,6.19-1.82,5.1-21.94-2.71-19.64-20.34,5.99-41.31,7.16-62.4,7.08s-42.19-.42-63.29-.64c-42.69-.45-85.38-.9-128.07-1.36-50.37-.53-100.75-.84-151.13-1.53-23.13-.32-46.32-.41-69.43-1.6-6.89-.35-7.25,19.99,0,20.36h0Z"/>
  <path class="cls-2" d="M501.52,266.28c0-2.28,.09-3.8,.78-5.59,.99-2.6,2.23-4.41,4.21-6.44,3.63-3.73,8.79-6.12,13.88-7.01,11.55-2.03,24.21,1.69,31.85,10.81,1.71,2.04,3.09,4.27,4.11,6.75,1.22,2.97,1.7,8.46,6.03,9.62,5.47,1.46,6.61-6.02,7.14-9.85,.26-1.87,1.11-4.71,2.34-6.98,5.16-9.52,16.64-14.36,27.32-13.8,5.57,.3,11.38,2.08,15.64,5.82,2,1.75,3.06,3.33,4.07,5.41,1.15,2.37-.47-1.49,.42,1.06,.13,.37,.69,2.81,.29,.99,.11,.52,.23,1.26,.24,1.82-.02-2.23-.08,1.8-.1,2.18-.12,2.75,.68,8.46,3.74,9.82s4.93-2.28,5.75-4.68c3.89-11.43,15.78-18.25,27.62-15.29,4.94,1.23,9.62,4.24,12.51,8.47,.23,.33,1.19,2.06,1.57,2.99-.18-.44,.73,2.93,.6,2.26,.07,.33,.19,2.48,.13,.81,0,.24-.05,2.72,0,1.86-.04,.59-.5,3.07-.83,4.29-1.09,4.06-1.43,10.66,1.83,13.93s6.08-.36,6.97-3.65c4.91-18.25,1.58-43.42-19.02-50.3-18.97-6.34-34.29,7.1-40.17,24.35l9.49,5.14c.87-20.07-11.66-37.84-32.81-37.68s-35.65,17.71-37.65,37.98l2.34-6.09-.5,.5,2.57-1.39c2.03,3.51,2.66,4.18,1.91,2-.2-.67-.42-1.34-.66-2-.53-1.5-1.11-2.99-1.77-4.44-1.09-2.39-2.44-4.63-3.93-6.78-2.71-3.92-6.23-7.27-10.16-9.97-7.02-4.8-16.01-7.23-24.49-6.8-21.74,1.12-33.46,19.4-33.41,39.9,0,3.06,.86,10.06,5.09,10.18s5.1-7.51,5.09-10.18h0Z"/>
  <path class="cls-2" d="M961.87,194.48c7.87-2.6,14.32-9.47,19.58-15.58,7.06-8.2,13.09-17.34,18.45-26.73,5.1-8.93,9.63-18.29,12.87-28.06,2.51-7.56,4.66-16.51,2.17-24.36-1.7,3.41-3.41,6.81-5.11,10.22,8.74,8.82,17.1,20.07,17.42,33.01,.23,9.39-4.41,18.22-10.59,25.01-13.49,14.83-36.43,21.68-54.8,12.08-4.86-2.54-6.46,12.06-1.98,14.4,16.98,8.87,37.69,5.09,52.55-6.31,16.51-12.66,25.09-33.41,21.51-54.07-2.49-14.38-10.17-26.76-20.34-37.03-4.87-4.91-5.89,7.76-5.11,10.22,.43,1.36-.11-1.36,.04,.07-.23-2.1,.02,.02-.04,.54,.16-1.34-.37,2.36-.31,2.09-.7,3.47-1.88,6.9-3.14,10.2-3.26,8.51-7.55,16.68-12.21,24.5-4.82,8.09-10.25,15.89-16.54,22.9-4.55,5.07-9.79,10.3-16.41,12.49-4.55,1.5-3.63,16.25,1.98,14.4h0Z"/>
  <path class="cls-2" d="M674.8,290.02c20.02-1.54,40.09-2.08,60.17-1.64l-5.09-10.18c.13,11.5-.61,22.89-2.2,34.28-.49,3.51-.36,10.72,3.56,12.53s5.89-4.42,6.26-7.11c1.84-13.15,2.71-26.42,2.57-39.69-.03-2.96-.86-10.09-5.09-10.18-20.08-.43-40.15,.11-60.17,1.64-7.25,.56-6.85,20.89,0,20.36h0Z"/>
  <path class="cls-2" d="M802.74,297.81c9.29,22.57,21.22,44.61,38.64,61.98,16.27,16.21,36.24,27.42,57.28,36.24,7.17,3,8.94-17.03,2.71-19.64-19.97-8.36-39.39-18.78-54.85-34.19-16.63-16.57-27.72-37.26-36.58-58.8-1.64-3.98-5.39-3.31-7.2,0-2.33,4.27-1.78,10.08,0,14.4h0Z"/>
  <path class="cls-2" d="M937.41,391.64c7.48,14.59,12.99,29.26,18,44.82l1.83-13.93c-10.68,10.87-25.74,18.69-40.35,22.73l5.75,4.68c-3.32-14.74-6.33-29.56-9.89-44.24-2.08-8.57-4.3-17.48-8.53-25.29-1.97-3.63-5.23-3.61-7.2,0-2.14,3.91-2.14,10.46,0,14.4s2.18,4.39,3.39,8.13c1.5,4.66,2.69,9.41,3.83,14.16,3.43,14.32,6.39,28.75,9.62,43.11,.66,2.94,2.65,5.54,5.75,4.68,15.79-4.36,31.27-13.07,42.78-24.78,3.1-3.16,3.06-10.11,1.83-13.93-5.45-16.92-11.47-33.08-19.6-48.94-1.9-3.71-5.26-3.55-7.2,0-2.18,3.99-2.06,10.37,0,14.4h0Z"/>
  <path class="cls-2" d="M366.64,183.1c9.14-.72,18.52-.04,27.67,.17,17.15,.38,34.29,.86,51.44,1.23,35.76,.79,71.82,2.03,107.55-.25,13.87-.89,27.47-2.06,36.53-14.16,13.79-18.41,14.97-45.5,37.41-56.87,5.47-2.77,11.42-4.1,17.56-3.59,7.02,.58,13.16,4.19,19.77,6.31s15.63,3.52,21.36-1.42c3.85-3.32,5.02-8.5,6.33-13.2,.33-1.19,.67-2.39,1.05-3.57,.65-2.04,.92-2.73,1.31-3.61,1.58-3.59,3.4-7.07,5.56-10.33,14.61-22.04,38.37-41.05,66.03-39.58,21.41,1.14,42.23,14.59,52.3,33.52,1.89,3.55,3.77,8.37,4.38,11.58,.54,2.86,3.27,10.52,7.31,5.94,6.57-7.44,12.11-16.63,20.56-22.14,8.3-5.41,19.26-6.98,27.91-1.44,6.11,3.92,9.32,11.29,12.18,17.67,1.97,4.39,3.39,7.97,4.89,12.55,.91,2.79,3.76,7.13,6.8,3.57,6.73-7.87,15.43-15.06,25.99-16.66,8.75-1.32,17.1,1.1,24.26,6.18,7.68,5.44,13.37,13.84,16.68,22.57,3.65,9.62,4.5,19,3.2,28.73-2.01,14.99-9.19,28.59-18.71,40.17-2.9,3.53-3.05,9.41-1.78,13.61,.85,2.82,3.87,7.15,6.8,3.57,20.7-25.2,29.59-59.07,20.75-90.86-5.84-21.01-22.16-44.24-46.28-44.24-14.53,0-26.87,9.15-35.93,19.75l6.8,3.57c-4.44-13.58-10.4-31.3-23.01-39.37-9.39-6-21.78-5.08-31.24,.24-10.53,5.92-17.1,16.51-24.9,25.34l7.31,5.94c-4.22-22.19-18.69-41.57-38.76-52.04-22.96-11.98-49.7-9.2-70.64,5.71-17.61,12.54-33.07,31.41-39.09,52.44-.62,2.17-1.15,4.37-1.89,6.51,1.09-3.14-.31,1.85,.39-.87-.1,.37-1.19,.99-.39,.54,.87-.48-.41,.27-.63,.37-2.35,1.02-4.22,1.39-7.66,1.26-7.29-.27-13.75-4.35-20.58-6.45-12.38-3.8-25.26-1.01-35.49,6.89-10.22,7.89-16.36,18.91-21.37,30.58-4.02,9.38-7.29,20.45-14.81,27.74-4.7,4.55-10.63,5.87-16.86,6.64-14.34,1.77-28.93,1.86-43.36,2.01-19.55,.2-39.11-.05-58.67-.41-30.71-.56-61.52-2.35-92.23-1.88-1.26,.02-2.53,.04-3.78,.14-7.08,.56-6.68,20.42,0,19.89h0Z"/>
  <g>
    <g>
      <path class="cls-2" d="M908.71,218.47c-11.38-2.07-21.94-8.45-29.04-17.59-2.96-3.81-5.41-8.37-5.14-13.19,.26-4.82,4.1-9.66,8.92-9.58,3.36,.05,10.57,5.58,14.45,10.31"/>
      <path class="cls-2" d="M909.62,215.16c-10.2-1.9-19.23-7.01-26.02-14.88-1.65-1.92-3.13-3.99-4.3-6.38-.48-.99-.88-2.18-1.14-3.36-.15-.69-.18-.88-.21-1.58-.01-.28-.01-.56,0-.84,0-.02,.09-1.19,0-.57,.29-2.17,1.18-3.83,2.88-5.15-.41,.32,.18-.1,.28-.16,.24-.15,.49-.29,.75-.41-.46,.22,.03-.01,.12-.04,.33-.09,.65-.2,.99-.25-.77,.13,1.25,.05,.4-.02-.63-.05,.04,.02,.17,.05,.23,.07,.46,.13,.68,.21,.03,.01,.8,.33,.32,.12-.43-.19,.54,.28,.63,.32,.47,.25,.93,.51,1.39,.79,.99,.61,2.22,1.47,2.82,1.95,2.21,1.76,4.28,3.72,6.09,5.89,1.19,1.43,3.63,1.23,4.86,0,1.41-1.41,1.19-3.42,0-4.86-1.81-2.18-3.88-4.13-6.09-5.89s-4.46-3.39-7.05-4.49-5.09-1.23-7.66-.21c-2.98,1.19-5.48,3.54-6.88,6.44-3.08,6.39-1.04,13.44,2.79,19.04,3.57,5.2,8.2,9.61,13.42,13.13,5.68,3.83,12.21,6.51,18.94,7.77,1.82,.34,3.7-.5,4.22-2.4,.46-1.67-.57-3.88-2.4-4.22h0Z"/>
    </g>
    <g>
      <path class="cls-2" d="M908.72,218.47c7.46-8.85,11.53-20.49,11.19-32.05-.14-4.82-1.17-9.9-4.43-13.44-3.27-3.55-9.31-4.84-12.98-1.7-2.56,2.18-4.6,11.03-4.57,17.15"/>
      <path class="cls-2" d="M911.14,220.89c8.39-10.05,13.25-23.47,12.06-36.64-.56-6.29-2.82-13.07-8.67-16.33-5.14-2.86-12.35-2.6-15.87,2.62-1.56,2.31-2.38,5.27-2.99,7.96-.73,3.23-1.18,6.59-1.19,9.9,0,1.86,1.58,3.43,3.43,3.43s3.43-1.57,3.43-3.43c0-2.56,.21-4.39,.64-6.63,.23-1.19,.5-2.37,.83-3.54,.14-.49,.29-.97,.45-1.46,.09-.25,.18-.51,.27-.76,.06-.15,.43-.98,.11-.3,.19-.41,.38-.82,.61-1.21,.11-.19,.73-1,.38-.61-.49,.54,.64-.51,.1-.1,.26-.2,.56-.34,.84-.51,.57-.33-.31,.01,.38-.14,.2-.04,.43-.11,.63-.17,.94-.28-.36,0,.22-.05,.5-.04,.99-.02,1.48,0,.98,.03-.54-.19,.41,.06,.22,.06,.44,.1,.66,.16,.27,.07,.54,.16,.81,.26,.22,.09,.21,.08-.03-.03,.21,.09,.41,.19,.62,.3,3.67,1.9,5.24,6.55,5.59,10.76,.46,5.52-.17,10.65-1.73,15.91-1.68,5.67-4.56,11.15-8.34,15.68-1.19,1.42-1.39,3.46,0,4.86,1.22,1.22,3.66,1.43,4.86,0h0Z"/>
    </g>
  </g>
  <path class="cls-2" d="M120.9,237.21c-12.93,15.18-35.28,19.21-52.43,8.66-3.86-2.37-7.25-5.44-9.86-9.17-1.11-1.59-2.05-3.32-2.81-5.1-.6-1.41-1.32-4.2-1.46-5.25-.26-1.86-.33-3.27-.25-4.55,.17-2.67,.71-5.3,1.48-7.86,1.45-4.8,4.09-8.97,7.56-12.58,10.32-10.72,26.26-13.64,40.49-14.04,7.07-.2,7.14-19.97,0-20.36-9.24-.52-18.34-2.7-25.92-8.24-2.56-1.88-4.97-4.41-6.78-7.21,.66,1.02-.41-.78-.57-1.08-.35-.71-.7-1.42-1.02-2.14,.85,1.92-.17-.66-.33-1.07-.12-.3-.16-.64-.26-.95-.37-1.2,.39,2.33,.04,.21-.07-.41-.35-2.98-.21-1.2,.16,1.98,.1-1.11,.02-1.19s.13-1.82-.02,.09c-.13,1.65-.04,.16,.07-.22,.08-.29,.09-.63,.14-.93,.37-2.07-.43,1.45-.05,.28,.23-.69,.41-1.41,.65-2.1-.56,1.63-.05,.15,.31-.55,.34-.66,.68-1.31,1.06-1.94-.76,1.24,.52-.68,.81-1.03,4.13-5,10.3-8.06,17.28-8.94,12.52-1.59,24.9,2.45,36.09,7.72,.9-6.55,1.8-13.09,2.71-19.64-8.42-2.83-16.99-6.6-23.7-12.56-2.27-2.01-5.13-5.26-6.36-7.17-2.17-3.38-2.4-4.34-3.26-7.33-.7-2.42,.25,1.95-.12-.52-.11-.74-.2-1.48-.29-2.22,.36,2.88,.03-1.61,.06-2.47-.11,2.66,.17-.76,.31-1.68,.38-2.44-.56,1.94,.11-.45,.27-.95,.54-1.89,.84-2.83,.74-2.31-.7,1.53,.25-.7,.29-.68,.59-1.36,.91-2.02,.54-1.11,1.13-2.2,1.76-3.27,.77-1.3,3.34-4.65,5.29-6.67,7.56-7.8,18.83-12.41,30.03-10.65,6.13,.96,11.98,4.16,16.59,8.25,3.1,2.76,5.82,6.03,8.19,9.43s4.6,11.2,10.03,9.45,7.12-10.78,9.5-15.2c2.78-5.16,6.14-9.93,10.04-14.31,7.07-7.94,15.92-14.25,26.02-17.72,16.03-5.52,34.58-1.95,45.31,11.59,2.07,2.62,3.61,5.17,5.14,8.26,1.8,3.61,2.24,4.79,3.26,7.81,1.5,4.43,2.45,8.98,3.75,13.45,.56,1.91,1.16,4.18,2.58,5.65,3.82,3.97,6.23-1.42,8.24-4.33,4.57-6.64,10.83-12.46,18.7-14.83,14.58-4.39,29.17,4.98,34.99,17.92,3.08,6.85,3.14,12.35,.86,20-3.51,11.82-11.85,21.57-20.78,29.75-4.72,4.32-1.77,23.91,5.14,17.58,20.66-18.91,33.61-47.82,24.32-75.7-5.92-17.77-22.69-34.58-42.93-30.33-13.3,2.79-22.54,12.72-29.26,23.99l2.25-2.62c1.71-1.21,3.97,1.49,4.38,2.13,.47,.73,.68,2.36,.39,.83-.21-1.08-.56-2.15-.83-3.22-.8-3.18-1.64-6.36-2.66-9.48-3.02-9.27-7.19-18.42-13.59-25.87-16.75-19.51-45.45-18.96-65.75-5.3-7,4.71-13.24,10.65-18.38,17.33-2.67,3.48-5.09,7.18-7.27,10.99-1.16,2.03-2.25,4.11-3.25,6.22-.45,.96-.89,1.93-1.31,2.9l-.62,1.48c-.42,1.74-.64,2.02-.69,.85l3.6,2.98c-6.62-12.28-16.25-24.63-30.13-28.92-10.54-3.26-21.72-1.64-31.14,4.08-21.54,13.07-30.19,42.08-20.37,65.09,6.64,15.55,21.69,24.8,37.12,29.98,7.65,2.57,8.62-16.85,2.71-19.64-18.48-8.71-46.2-15.48-61.21,3.27-12.18,15.22-10.32,40.41,3.53,53.99,9.02,8.84,21.27,12.54,33.66,13.23v-20.36c-15.69,.45-31.72,4.07-43.62,14.87-11.2,10.17-15.91,25.94-16.09,40.7-.32,26.16,17.95,49.15,45.06,49.64,14.43,.26,27.8-6.5,37.07-17.38,3.02-3.54,3.1-9.69,1.83-13.93-.89-2.95-3.91-7.24-6.97-3.65h0Z"/>
  <path class="cls-2" d="M259.56,143.9c-4.37-13.71-14.61-26.46-27.64-32.85-7.19-3.52-14.73-3.18-22.31-5.09s-14.86-5.67-22.29-8.48c-6.14-2.32-15.17-6.01-21.47-2.78-4.47,2.29-7.49,6.21-8.77,11.03-3.02,11.36,3.37,21.78,11.56,29.05s19.23,14.46,30.61,16.85c4.93,1.03,5.93-15.05,0-16.29-9.83-2.06-19.97-8.64-27.28-15.33-1.94-1.78-3.82-3.69-5.4-5.8-.58-.78-1.02-1.6-1.55-2.4-.25-.47-.48-.96-.69-1.45,.15,.22,.22,.46,.19,.74-.17-1.45-.21-.93-.1,1.58-.05,.35-.15,.68-.3,.99-.09-.01,1.37-1.65,1.44-1.71,2.42-2.13,5.11-2.36,8.18-1.93,7.93,1.11,15.22,4.76,22.55,7.77,7.9,3.24,15.49,4.97,23.93,6.03,14.26,1.79,28.03,14.84,32.31,28.31,.83,2.62,2.95,5.42,5.57,2.92s2.41-8.15,1.46-11.14h0Z"/>
  <ellipse class="cls-1" cx="217.61" cy="233.85" rx="36" ry="26" transform="translate(-95.14 168.85) rotate(-35.32)"/>
  <path class="cls-2" d="M202.84,247.94c8.58-5.13,17.36-9.91,26.32-14.34,4.06-2,2.75-15.34-1.8-13.09-8.97,4.43-17.74,9.21-26.32,14.34-3.94,2.35-2.38,15.59,1.8,13.09h0Z"/>
  <path class="cls-2" d="M171.18,252.53c24.21-18.75,46.2-39.96,68.74-60.63,6.29-5.77,2.35-31.88-6.85-23.45-21.49,19.71-42.41,40.01-65.5,57.89-4.82,3.73-5.54,11.02-4.74,16.7,.37,2.62,3.56,13.19,8.35,9.48h0Z"/>
  <path class="cls-2" d="M956.53,204.54c7.54-1.01,14.88,.14,21.55,3.86,6.12,3.41,10.95,8.73,13.65,14.01,.37,.72,.7,1.46,1.04,2.2,.88,1.92-.13-.58,.34,.85,.29,.88,.54,1.77,.81,2.66,.71,2.36,.06-.66,.29,1.31,.09,.8,.19,1.62,.31,2.42-.42-2.81-.04-.04-.02,.78,.01,.47-.03,.94-.03,1.4,0-.3,.32-2.37,.04-.6-.15,.93-.24,1.88-.39,2.81,.43-2.69-1.07,3.4-.85,2.82,.26-.68-.75,1.67-.94,2.05-.51,1.03-1.06,2.05-1.67,3.02-1.32,2.08-4.83,6.03-7.57,8.28-10.7,8.77-24.75,12.66-38.17,14.68-7.15,1.08-6.85,21,0,20.36,9.1-.84,18.57-.31,26.67,4.32,2.76,1.58,5.07,3.51,7.04,6.01,.98,1.24,.96,1.32,1.83,2.99,.26,.5,.8,2.14,.34,.72,.08,.25,.87,3,.5,1.65-.5-1.8,.25,2.53,.06,.35-.15-1.64,0,.88-.03,1.22-.03,.78-.01,.49,.05-.87-.04,.37-.09,.74-.15,1.1-.12,.69-.06,.49,.16-.61-.12,.49-.25,.97-.39,1.44-.59,1.73,.57-1.07-.26,.77-.32,.7-.65,1.39-1.03,2.06-.42,.74-1.12,1.74-2.17,2.94-5.09,5.83-12.77,8.65-20.25,9.73s-6.57,21.29,0,20.36c6.59-.93,12.73,.32,16.37,5.21,.8,1.08-.36-.63,.52,.92,.23,.4,1.1,2.67,.41,.71,.23,.65,.41,1.31,.6,1.97,.52,1.77-.09-1.77,.1,.67,.22,2.71,.07-1.64,.09,.53,0,.74,0,1.47,0,2.21,.04-3.69-.88,4.42-.2,1.56-.18,.74-.37,1.48-.59,2.21-.1,.33-1.22,3.21-.5,1.54-.6,1.41-1.27,2.79-2.07,4.1-.92,1.51-3.66,4.72-5.92,6.29-6.26,4.37-14.04,4.89-21.25,2.73-7.73-2.32-8.96,17.76-2.71,19.64,15.98,4.8,30.59-1.25,38.18-16.27,6.98-13.82,8.25-34.59-2.13-47.14-5.17-6.26-13.08-8.32-20.9-7.22v20.36c10.08-1.45,20.03-5.5,26.42-13.76,6.43-8.32,8.79-19.22,7.46-29.57-1.26-9.71-5.97-18.48-13.91-24.29-9.18-6.71-21.32-7.98-32.32-6.96v20.36c24.34-3.66,50.91-14.5,57.89-40.56,5.34-19.95-.88-42.63-17.62-55.27-8.11-6.12-18.59-8.79-28.64-7.45-7.33,.98-6.6,21.25,0,20.36h0Z"/>
  <path class="cls-2" d="M280.81,309.96c11.08,16.7,40.21,20.08,56.27,9.52,10.47-6.88,17.64-18.02,20.36-30.16,3.42-15.23-2.02-28.16-6.88-42.26-1.47,5.11-2.93,10.21-4.4,15.32,17.56,3.05,35.02-4.45,43.01-20.79,7.97-16.3,6.31-39.09-7.72-51.67-9.08-8.15-20.97-11.28-32.94-11.99,.45,6.67,.9,13.33,1.35,20,9.17-4.85,17.75-11.51,22.36-21.04,5.61-11.58,5.52-26.05,1.35-38.08s-13.36-18.63-25.84-20.15-23.26,4.04-31.84,12.82c-3.18,3.25-3.04,9.91-1.83,13.93,.97,3.22,3.74,6.95,6.97,3.65,6.15-6.29,13.67-10.39,22.6-10.31,7.52,.06,17.06,2.28,20.74,9.6,6.94,13.81-6.3,24.16-17.23,29.94-5.09,2.69-5.76,19.58,1.35,20,10.32,.61,21.71,3.02,29.29,10.62,.75,.75,1.46,1.55,2.13,2.38,.18,.23,1.68,2.39,1.18,1.57,.53,.86,.97,1.76,1.42,2.66,.99,1.97,.19,.17,.54,1.38,.15,.5,.79,3.62,.36,1.11,.16,.95,.29,1.91,.37,2.87-.27-3-.1,.27-.11,.91,.06-2.98-.09,.24-.18,.89-.2,1.54,.55-1.42-.26,1.11-.11,.34-1.12,3.23-.39,1.39-.36,.91-.78,1.8-1.23,2.67-.12,.23-1.47,2.54-.85,1.59-2.1,3.23-4.78,5.96-7.88,8.02-8.02,5.31-17.43,6.18-26.74,4.56-5.79-1.01-5.33,12.63-4.4,15.32,2.72,7.87,8.72,17.36,5.8,25.85s-9.98,15.77-18.25,19.43c-13.07,5.78-35.11,2.22-43.37-10.23-2.65-3.99-6.21,1.12-6.97,3.65-1.39,4.63-.84,9.91,1.83,13.93h0Z"/>
  <path class="cls-2" d="M112.52,348.06c5.27-.77,10.94-2.08,16.29-1.4,2.08,.26,4.06,.92,6.04,1.58,.81,.27,2.72,1.39,3.52,1.32,1.95-.17-1.25,.77,.22-1.07-.78,.98-.96,4.28-1.33,5.54-.75,2.6-1.56,5.18-2.18,7.82-1.32,5.64-1.89,11.39-.25,17.04,.67,2.32,2.43,4.35,4.64,2.44s1.92-6.86,1.22-9.29c-1.16-3.99,2.35-10.47,3.32-14.37,1.4-5.61,2.47-12.35-.47-17.68-2.46-4.46-8.54-5.73-13.19-6.64-5.85-1.15-12.04,.29-17.83,1.14-4.89,.72-4.36,14.21,0,13.58h0Z"/>
</svg>