<?xml version="1.0" encoding="UTF-8"?>
<svg id="Capa_1" data-name="Capa 1" xmlns="http://www.w3.org/2000/svg" viewBox="0 0 1080 409.47">
  <defs>
    <style>
      .cls-1 {
        fill: #ff0014;
      }
    </style>
  </defs>
  <path class="cls-1" d="M237.81,260.45v.8h-45.21c-1.24-4.26-2.7-9.13-4.39-14.63-1.69-5.49-3.5-11.34-5.45-17.55h-57.44c-3.55,12.41-6.83,23.13-9.84,32.18h-45.21v-.53L124.8,92.92h58.5l54.51,167.53ZM153.52,123.24c-1.77,9.04-4.35,20.04-7.71,32.97-3.37,12.94-6.91,26.15-10.64,39.62h38.03c-3.9-13.47-7.54-26.68-10.9-39.62-3.37-12.94-5.94-23.93-7.71-32.97h-1.06Z"/>
  <path class="cls-1" d="M374.13,171.24v36.17h-122.32V39.07h42.55V171.24h79.78Z"/>
  <path class="cls-1" d="M444.29,261.25h-42.55V37.28h74.99c16.84,0,30.32,2.04,40.42,6.12,10.1,4.08,17.37,10.73,21.81,19.94,4.43,9.22,6.65,21.72,6.65,37.49,0,14.89-2.22,26.99-6.65,36.3-4.43,9.31-11.7,16.18-21.81,20.61-10.1,4.43-23.58,6.65-40.42,6.65h-32.44v96.86Zm25.53-189.13h-25.53v57.44h25.53c12.59,0,21.01-2.13,25.26-6.38,4.25-4.26,6.38-11.7,6.38-22.34s-2.13-17.42-6.38-21.94c-4.25-4.52-12.68-6.78-25.26-6.78Z"/>
  <path class="cls-1" d="M706.77,214.85v.8h-45.21c-1.24-4.26-2.7-9.13-4.39-14.63-1.69-5.49-3.5-11.34-5.45-17.55h-57.44c-3.55,12.41-6.83,23.13-9.84,32.18h-45.21v-.53l54.51-167.8h58.5l54.51,167.53Zm-84.3-137.21c-1.77,9.04-4.35,20.04-7.71,32.97-3.37,12.94-6.91,26.15-10.64,39.62h38.03c-3.9-13.47-7.54-26.68-10.9-39.62-3.37-12.94-5.94-23.93-7.71-32.97h-1.06Z"/>
  <path class="cls-1" d="M840.34,161.67v33.51c-8.51,1.78-16.84,3.1-25,3.99-8.16,.89-17.82,1.33-28.98,1.33-14.36,0-26.46-1.24-36.3-3.72-9.84-2.48-17.73-6.87-23.67-13.16-5.94-6.29-10.24-15.2-12.9-26.73-2.66-11.52-3.99-26.33-3.99-44.41s1.33-31.64,3.99-42.81c2.66-11.17,6.96-19.81,12.9-25.93,5.94-6.12,13.83-10.37,23.67-12.76s21.94-3.59,36.3-3.59c11.17,0,20.83,.4,28.98,1.2,8.15,.8,16.49,2.17,25,4.12v34.57l-.8,.53c-7.45-1.77-14.63-3.06-21.54-3.86-6.91-.8-15.42-1.2-25.53-1.2-8.16,0-14.85,.58-20.08,1.73-5.23,1.16-9.35,3.42-12.37,6.78-3.02,3.37-5.1,8.34-6.25,14.89-1.16,6.56-1.73,15.34-1.73,26.33,0,11.53,.57,20.79,1.73,27.79,1.15,7.01,3.23,12.28,6.25,15.82,3.01,3.55,7.13,5.94,12.37,7.18,5.23,1.24,11.92,1.86,20.08,1.86,9.93,0,18.39-.31,25.4-.93,7-.62,14.05-1.82,21.14-3.59l1.33,1.06Z"/>
  <path class="cls-1" d="M1009.71,285.25h-47.62c-1.24-4.26-8.83-36.47-10.77-42.67h-57.44c-3.55,12.41-6.96,33.63-9.97,42.67h-49.4l58.83-178.82h58.5l57.86,178.82Zm-87.64-148.51c-1.77,9.04-4.35,20.04-7.71,32.97-3.37,12.94-6.91,26.15-10.64,39.62h38.03c-3.9-13.47-7.54-26.68-10.9-39.62-3.37-12.94-5.94-23.93-7.71-32.97h-1.06Z"/>
  <g>
    <path class="cls-1" d="M374.81,319.69v-14h42.46v14h-42.46Zm32.57,61.63c-6.49,0-11.64-1.9-15.45-5.71-3.8-3.8-5.71-9.71-5.71-17.73v-52.2l2.89-16.74h12.33v69.24c0,2.84,.73,4.97,2.21,6.39,1.47,1.42,3.32,2.13,5.55,2.13,1.72,0,3.25-.1,4.57-.31,1.32-.2,2.49-.46,3.5-.76v14.15c-1.32,.4-2.77,.76-4.34,1.07-1.57,.3-3.42,.46-5.55,.46Z"/>
    <path class="cls-1" d="M457.75,382.09c-5.78,0-10.76-1.02-14.91-3.04-4.16-2.03-7.33-4.95-9.51-8.75-2.18-3.81-3.27-8.35-3.27-13.62,0-4.87,1.12-9.21,3.35-13.01,2.23-3.8,5.43-6.82,9.59-9.06,4.16-2.23,9.08-3.35,14.76-3.35,7.1,0,12.81,1.6,17.12,4.8,4.31,3.2,7.33,7.58,9.06,13.16h-8.52v-19.02c0-3.14-1.07-6.04-3.2-8.67-2.13-2.64-5.89-3.96-11.26-3.96-2.84,0-5.96,.33-9.36,.99-3.4,.66-6.92,1.8-10.58,3.42l-4.57-11.72c4.16-2.03,8.47-3.55,12.94-4.57,4.46-1.01,8.83-1.52,13.09-1.52,6.39,0,11.67,1.17,15.83,3.5,4.16,2.33,7.25,5.45,9.28,9.36,2.03,3.91,3.04,8.29,3.04,13.16v49.76h-10.96l-3.8-13.55,8.07-2.28c-1.83,5.99-5.08,10.48-9.74,13.47-4.67,2.99-10.15,4.49-16.44,4.49Zm2.74-13.54c4.46,0,8.07-1.04,10.8-3.12,2.74-2.08,4.11-4.99,4.11-8.75s-1.37-6.8-4.11-8.83c-2.74-2.03-6.34-3.04-10.8-3.04s-8.07,1.02-10.8,3.04c-2.74,2.03-4.11,4.97-4.11,8.83s1.37,6.67,4.11,8.75c2.74,2.08,6.34,3.12,10.8,3.12Z"/>
    <path class="cls-1" d="M504.32,319.69v-14h42.46v14h-42.46Zm32.57,61.63c-6.49,0-11.64-1.9-15.45-5.71-3.8-3.8-5.71-9.71-5.71-17.73v-52.2l2.89-16.74h12.33v69.24c0,2.84,.73,4.97,2.21,6.39,1.47,1.42,3.32,2.13,5.55,2.13,1.72,0,3.25-.1,4.57-.31,1.32-.2,2.49-.46,3.5-.76v14.15c-1.32,.4-2.77,.76-4.34,1.07-1.57,.3-3.42,.46-5.55,.46Z"/>
    <path class="cls-1" d="M558.95,319.69v-14h42.46v14h-42.46Zm32.57,61.63c-6.49,0-11.64-1.9-15.45-5.71-3.8-3.8-5.71-9.71-5.71-17.73v-52.2l2.89-16.74h12.33v69.24c0,2.84,.73,4.97,2.21,6.39,1.47,1.42,3.32,2.13,5.55,2.13,1.72,0,3.25-.1,4.57-.31,1.32-.2,2.49-.46,3.5-.76v14.15c-1.32,.4-2.77,.76-4.34,1.07-1.57,.3-3.42,.46-5.55,.46Z"/>
    <path class="cls-1" d="M652.24,381.48c-7.51,0-14.13-1.6-19.86-4.8-5.73-3.2-10.17-7.68-13.32-13.47-3.15-5.78-4.72-12.53-4.72-20.24s1.57-14.61,4.72-20.39c3.14-5.78,7.58-10.3,13.32-13.55,5.73-3.24,12.35-4.87,19.86-4.87s14.25,1.62,19.94,4.87c5.68,3.25,10.12,7.76,13.32,13.55,3.2,5.78,4.79,12.58,4.79,20.39s-1.6,14.46-4.79,20.24c-3.2,5.78-7.64,10.27-13.32,13.47-5.68,3.2-12.33,4.8-19.94,4.8Zm0-14.61c6.8,0,12.25-2.21,16.36-6.62,4.11-4.41,6.16-10.17,6.16-17.27s-2.05-13.03-6.16-17.5c-4.11-4.46-9.56-6.7-16.36-6.7s-12.1,2.21-16.21,6.62c-4.11,4.41-6.16,10.22-6.16,17.43s2.05,13.01,6.16,17.43c4.11,4.41,9.51,6.62,16.21,6.62Z"/>
    <path class="cls-1" d="M738.83,381.48c-7.51,0-14.13-1.6-19.86-4.8-5.73-3.2-10.17-7.68-13.32-13.47-3.15-5.78-4.72-12.53-4.72-20.24s1.57-14.61,4.72-20.39c3.14-5.78,7.58-10.3,13.32-13.55,5.73-3.24,12.35-4.87,19.86-4.87s14.25,1.62,19.94,4.87c5.68,3.25,10.12,7.76,13.32,13.55,3.2,5.78,4.79,12.58,4.79,20.39s-1.6,14.46-4.79,20.24c-3.2,5.78-7.64,10.27-13.32,13.47-5.68,3.2-12.33,4.8-19.94,4.8Zm0-14.61c6.8,0,12.25-2.21,16.36-6.62,4.11-4.41,6.16-10.17,6.16-17.27s-2.05-13.03-6.16-17.5c-4.11-4.46-9.56-6.7-16.36-6.7s-12.1,2.21-16.21,6.62c-4.11,4.41-6.16,10.22-6.16,17.43s2.05,13.01,6.16,17.43c4.11,4.41,9.51,6.62,16.21,6.62Z"/>
  </g>
</svg>